<svg width="18" height="19" viewBox="0 0 18 19" fill="none" xmlns="http://www.w3.org/2000/svg">
<path d="M1.23 17.346V8.191H1.038C0.744667 8.191 0.498333 8.091 0.299 7.891C0.0996667 7.691 0 7.44533 0 7.154V4.807C0 4.51367 0.0996667 4.267 0.299 4.067C0.498333 3.867 0.745 3.76767 1.039 3.769H5.142C4.94333 3.593 4.806 3.38433 4.73 3.143C4.654 2.90233 4.616 2.64933 4.616 2.384C4.616 1.72133 4.84767 1.15833 5.311 0.695C5.77433 0.231667 6.33733 0 7 0C7.38333 0 7.73533 0.09 8.056 0.27C8.376 0.45 8.65233 0.684333 8.885 0.973C9.117 0.680333 9.393 0.445 9.713 0.267C10.033 0.089 10.385 0 10.769 0C11.4317 0 11.995 0.231667 12.459 0.695C12.923 1.15833 13.1547 1.72133 13.154 2.384C13.154 2.644 13.1147 2.895 13.036 3.137C12.9573 3.379 12.821 3.58967 12.627 3.769H16.962C17.2553 3.769 17.5017 3.86867 17.701 4.068C17.9003 4.26733 18 4.514 18 4.808V7.153C18 7.44633 17.9003 7.693 17.701 7.893C17.5017 8.093 17.255 8.19267 16.961 8.192H16.769V17.346C16.769 17.79 16.611 18.17 16.295 18.486C15.979 18.802 15.5987 18.9603 15.154 18.961H2.846C2.402 18.961 2.022 18.8027 1.706 18.486C1.39 18.1693 1.23067 17.7893 1.23 17.346ZM10.769 1C10.377 1 10.0483 1.13267 9.783 1.398C9.51767 1.66333 9.385 1.992 9.385 2.384C9.385 2.776 9.51767 3.105 9.783 3.371C10.0483 3.637 10.377 3.76967 10.769 3.769C11.161 3.76833 11.49 3.63567 11.756 3.371C12.022 3.10633 12.1547 2.77733 12.154 2.384C12.1533 1.99067 12.0207 1.662 11.756 1.398C11.4913 1.134 11.1623 1.00133 10.769 1ZM5.615 2.384C5.615 2.77667 5.74767 3.10567 6.013 3.371C6.27833 3.63633 6.60733 3.769 7 3.769C7.39267 3.769 7.72133 3.63633 7.986 3.371C8.25067 3.10567 8.38333 2.77667 8.384 2.384C8.38467 1.99133 8.252 1.66267 7.986 1.398C7.72 1.13333 7.39133 1.00067 7 1C6.60867 0.999333 6.28 1.132 6.014 1.398C5.748 1.664 5.61533 1.99267 5.616 2.384M1 4.769V7.191H8.5V4.769H1ZM8.5 17.961V8.191H2.23V17.346C2.23 17.5253 2.288 17.6727 2.404 17.788C2.51933 17.9033 2.66667 17.961 2.846 17.961H8.5ZM9.5 17.961H15.154C15.3333 17.961 15.4807 17.9033 15.596 17.788C15.7113 17.6727 15.769 17.5253 15.769 17.346V8.191H9.5V17.961ZM17 7.191V4.77H9.5V7.191H17Z" fill="#FDFDFD"/>
</svg>
