<svg width="22" height="24" viewBox="0 0 22 24" fill="none" xmlns="http://www.w3.org/2000/svg">
<path d="M20.793 13.2978L16.874 15.5158L13.359 12.0228L16.902 8.50178L20.793 10.7038C21.0226 10.8336 21.2137 11.0221 21.3466 11.25C21.4795 11.4779 21.5496 11.737 21.5496 12.0008C21.5496 12.2646 21.4795 12.5237 21.3466 12.7515C21.2137 12.9794 21.0226 13.1679 20.793 13.2978ZM0.112 0.923776C0.0381369 1.10404 9.51139e-05 1.29697 0 1.49178V22.5088C0 22.7258 0.0449999 22.9278 0.124 23.1088L11.279 12.0218L0.112 0.923776ZM12.319 10.9888L15.577 7.75078L2.225 0.194776C1.9387 0.0306085 1.60549 -0.0324416 1.279 0.0157761L12.319 10.9888ZM12.319 13.0558L1.319 23.9888C1.617 24.0248 1.931 23.9728 2.225 23.8058L15.549 16.2658L12.319 13.0558Z" fill="#FDFDFD"/>
</svg>
