<svg width="20" height="24" viewBox="0 0 20 24" fill="none" xmlns="http://www.w3.org/2000/svg">
<path d="M17.8845 16.734C18.1112 16.8248 18.3067 16.9796 18.447 17.1795C18.572 17.3675 18.662 17.594 18.717 17.859C18.747 18.014 18.782 18.159 18.822 18.294C18.8961 18.5467 19.0068 18.7873 19.1505 19.008C19.2205 19.117 19.3145 19.238 19.4325 19.371C19.5325 19.481 19.6225 19.6215 19.7025 19.7925C19.7755 19.9464 19.8149 20.1142 19.818 20.2845C19.8227 20.4481 19.7737 20.6088 19.6785 20.742C19.5795 20.8698 19.4605 20.9807 19.326 21.0705C19.146 21.1955 18.9585 21.305 18.7635 21.399C18.5685 21.492 18.3735 21.5895 18.1785 21.6915C17.8869 21.8303 17.6082 21.9949 17.346 22.1835C17.111 22.3555 16.8765 22.5745 16.6425 22.8405C16.3699 23.1463 16.0541 23.4106 15.705 23.625C15.5266 23.7375 15.3332 23.8244 15.1305 23.883C14.9355 23.938 14.7405 23.973 14.5455 23.988C14.0925 23.988 13.7175 23.91 13.4205 23.754C13.1235 23.598 12.8655 23.313 12.6465 22.899C12.5845 22.781 12.522 22.7065 12.459 22.6755C12.3616 22.6347 12.2592 22.607 12.1545 22.593L10.968 22.5C10.578 22.47 10.18 22.4545 9.77402 22.4535C9.43634 22.4521 9.09914 22.4792 8.76602 22.5345C8.42202 22.5895 8.08202 22.656 7.74602 22.734C7.67602 22.75 7.60602 22.8085 7.53602 22.9095C7.44668 23.0302 7.3484 23.144 7.24202 23.25C7.09601 23.3893 6.9257 23.5007 6.73952 23.5785C6.4741 23.6812 6.1916 23.7326 5.90702 23.73C5.64902 23.73 5.37152 23.703 5.07452 23.649C4.79654 23.6012 4.52778 23.5101 4.27802 23.379C3.82695 23.1488 3.34573 22.9832 2.84852 22.887C2.37952 22.801 1.88352 22.723 1.36052 22.653C1.18683 22.6316 1.01453 22.6 0.844518 22.5585C0.687594 22.5219 0.539652 22.454 0.409518 22.359C0.290462 22.2712 0.191296 22.1593 0.118518 22.0305C0.0395547 21.8663 -0.000970018 21.6862 1.76285e-05 21.504C1.76285e-05 21.261 0.0315176 21.0265 0.0945176 20.8005C0.157518 20.5745 0.192518 20.3365 0.199518 20.0865C0.199518 19.9135 0.188018 19.7455 0.165018 19.5825C0.141246 19.4073 0.12523 19.2311 0.117018 19.0545C0.117018 18.6575 0.211017 18.3645 0.399017 18.1755C0.586017 17.9885 0.859518 17.84 1.21952 17.73C1.37934 17.6813 1.52992 17.6063 1.66502 17.508C1.78971 17.4157 1.90707 17.3139 2.01602 17.2035C2.12693 17.0907 2.22875 16.9693 2.32052 16.8405C2.41452 16.7065 2.52002 16.5735 2.63702 16.4415C2.662 16.4124 2.67489 16.3748 2.67302 16.3365C2.67302 16.2415 2.66902 16.1515 2.66102 16.0665L2.63702 15.7845C2.63702 15.2545 2.71902 14.7195 2.88302 14.1795C3.04802 13.6405 3.26302 13.113 3.52802 12.597C3.79282 12.0824 4.09043 11.5854 4.41902 11.109C4.74702 10.633 5.07102 10.1915 5.39102 9.7845C5.82394 9.24048 6.16818 8.63147 6.41102 7.98C6.63702 7.355 6.75402 6.675 6.76202 5.94C6.76202 5.629 6.74652 5.321 6.71552 5.016C6.68372 4.70452 6.6682 4.3916 6.66902 4.0785C6.66902 3.4525 6.73902 2.89 6.87902 2.391C7.02002 1.891 7.23902 1.461 7.53602 1.101C7.98152 0.561 8.22002 0.4725 8.69552 0.2925C9.17352 0.1125 9.74402 0.015 10.407 0C11.197 0 11.8265 0.1565 12.2955 0.4695C12.7635 0.7815 13.1225 1.1915 13.3725 1.6995C13.6225 2.2065 13.7825 2.773 13.8525 3.399C13.9245 4.023 13.964 4.6555 13.971 5.2965V5.496C13.971 5.817 13.975 6.102 13.983 6.351C13.9959 6.85738 14.1112 7.35591 14.322 7.8165C14.432 8.0585 14.596 8.32 14.814 8.601C15.189 9.095 15.572 9.5915 15.963 10.0905C16.353 10.5905 16.708 11.1055 17.028 11.6355C17.349 12.1675 17.611 12.7225 17.814 13.3005C18.017 13.8785 18.1225 14.5035 18.1305 15.1755C18.1325 15.7053 18.0495 16.2305 17.8845 16.734ZM8.05352 4.524C8.16152 4.524 8.25152 4.551 8.32352 4.605C8.39652 4.66402 8.45287 4.74106 8.48702 4.8285C8.52307 4.91914 8.5502 5.01309 8.56802 5.109C8.58402 5.203 8.59202 5.301 8.59202 5.403C8.59357 5.46736 8.58129 5.53129 8.55602 5.5905C8.52934 5.63965 8.49373 5.6834 8.45102 5.7195L8.31002 5.8365C8.26051 5.87989 8.21391 5.92649 8.17052 5.976C8.11567 6.06473 8.03864 6.13763 7.94702 6.1875C7.85394 6.24112 7.76381 6.29971 7.67702 6.363C7.59389 6.42324 7.51564 6.48994 7.44302 6.5625C7.4064 6.60145 7.37819 6.64752 7.36012 6.69784C7.34206 6.74816 7.33454 6.80165 7.33802 6.855C7.33802 6.925 7.37302 6.9835 7.44302 7.0305C7.61816 7.14039 7.75696 7.29954 7.84202 7.488C7.92102 7.668 8.00702 7.844 8.10002 8.016C8.19302 8.186 8.31402 8.3305 8.46302 8.4495C8.61202 8.5665 8.84202 8.625 9.15302 8.625H9.22502C9.53702 8.61 9.83402 8.528 10.116 8.379C10.397 8.231 10.678 8.0745 10.959 7.9095C11.0087 7.88366 11.0598 7.86063 11.112 7.8405C11.1662 7.82044 11.2173 7.79265 11.2635 7.758L12.1185 7.0905C12.1332 7.04016 12.1452 6.98909 12.1545 6.9375L12.1785 6.7725C12.1807 6.69798 12.1598 6.6246 12.1185 6.5625C12.0802 6.50809 12.033 6.46044 11.979 6.4215C11.919 6.38061 11.851 6.35299 11.7795 6.3405C11.7082 6.32563 11.638 6.30558 11.5695 6.2805C11.3827 6.24156 11.204 6.17051 11.0415 6.0705C10.8801 5.97107 10.7067 5.89245 10.5255 5.8365C10.4955 5.8285 10.472 5.805 10.455 5.766C10.4372 5.7198 10.4217 5.67274 10.4085 5.625C10.3913 5.5759 10.3872 5.52318 10.3965 5.472C10.4047 5.43269 10.4005 5.39184 10.3845 5.355C10.3845 5.262 10.3925 5.1645 10.4085 5.0625C10.4263 4.95965 10.4618 4.86067 10.5135 4.77C10.5585 4.68612 10.6227 4.61414 10.701 4.56C10.7932 4.50531 10.8983 4.4763 11.0055 4.476C11.2485 4.476 11.4245 4.566 11.5335 4.746C11.6435 4.926 11.702 5.121 11.709 5.331C11.7108 5.42432 11.6908 5.51678 11.6505 5.601C11.6115 5.68146 11.591 5.7696 11.5905 5.859C11.5905 5.922 11.6105 5.965 11.6505 5.988C11.6983 6.01251 11.7502 6.02826 11.8035 6.0345C11.9835 6.0345 12.1005 5.992 12.1545 5.907C12.2178 5.78797 12.2498 5.6548 12.2475 5.52C12.2475 5.34 12.2325 5.1405 12.2025 4.9215C12.1734 4.7095 12.1095 4.50375 12.0135 4.3125C11.925 4.13339 11.8016 3.97376 11.6505 3.843C11.488 3.71319 11.2838 3.64706 11.076 3.657C10.671 3.657 10.378 3.7585 10.197 3.9615C10.017 4.1635 9.92352 4.468 9.91652 4.875C9.91652 4.992 9.92402 5.109 9.93902 5.226C9.95402 5.343 9.96202 5.4605 9.96302 5.5785C9.96302 5.6175 9.95902 5.637 9.95102 5.637C9.92661 5.63196 9.90293 5.6239 9.88052 5.613L9.74102 5.5545C9.68329 5.53135 9.62417 5.51181 9.56402 5.496C9.46441 5.4712 9.36077 5.46712 9.25952 5.484C9.19733 5.49191 9.13471 5.49592 9.07202 5.496C8.96202 5.496 8.90702 5.4765 8.90702 5.4375C8.90702 5.3205 8.89952 5.172 8.88452 4.992C8.86952 4.812 8.83052 4.632 8.76752 4.452C8.71501 4.29191 8.6359 4.14181 8.53352 4.008C8.43952 3.891 8.29902 3.8285 8.11202 3.8205C7.98598 3.81711 7.86367 3.86345 7.77152 3.9495C7.67657 4.03982 7.59386 4.14219 7.52552 4.254C7.45364 4.37587 7.40959 4.51212 7.39652 4.653C7.38417 4.77837 7.36866 4.90341 7.35002 5.028C7.35684 5.23486 7.39217 5.4398 7.45502 5.637C7.49502 5.762 7.53802 5.8715 7.58402 5.9655C7.63102 6.0585 7.68602 6.105 7.74902 6.105C7.78702 6.105 7.83752 6.078 7.90052 6.024C7.96352 5.969 7.99502 5.918 7.99502 5.871C7.99502 5.847 7.98302 5.8315 7.95902 5.8245C7.93608 5.8177 7.91241 5.81367 7.88852 5.8125C7.83452 5.8125 7.78752 5.785 7.74752 5.73C7.70791 5.67215 7.6766 5.60904 7.65452 5.5425L7.58402 5.3205C7.53673 5.11815 7.56612 4.90544 7.66652 4.7235C7.73652 4.5975 7.86552 4.531 8.05352 4.524ZM5.49752 22.77C5.68552 22.77 5.86952 22.754 6.04952 22.722C6.22744 22.6904 6.39818 22.6268 6.55352 22.5345C6.70276 22.4495 6.82455 22.3235 6.90452 22.1715C6.99171 21.9964 7.03982 21.8045 7.04552 21.609C7.04601 21.4694 7.02215 21.3309 6.97502 21.1995C6.92664 21.0657 6.85947 20.9394 6.77552 20.8245C6.68223 20.6782 6.58056 20.5375 6.47102 20.403C6.36143 20.268 6.25976 20.1268 6.16652 19.98L5.73152 19.335C5.59152 19.125 5.45152 18.9025 5.31152 18.6675C5.18809 18.468 5.07054 18.2649 4.95902 18.0585C4.84396 17.8481 4.71043 17.6483 4.56002 17.4615C4.46485 17.3426 4.35497 17.2362 4.23302 17.145C4.10771 17.051 3.95466 17.0014 3.79802 17.004C3.6347 17.0022 3.4765 17.061 3.35402 17.169C3.21302 17.2893 3.08346 17.4223 2.96702 17.5665C2.82954 17.7294 2.68066 17.8822 2.52152 18.024C2.35752 18.173 2.14652 18.29 1.88852 18.375C1.71383 18.4216 1.55318 18.5102 1.42052 18.633C1.31052 18.743 1.25552 18.911 1.25552 19.137C1.25552 19.293 1.26752 19.449 1.29152 19.605C1.31452 19.761 1.33002 19.9175 1.33802 20.0745C1.33802 20.2845 1.30652 20.4835 1.24352 20.6715C1.18408 20.849 1.1527 21.0348 1.15052 21.222C1.15052 21.434 1.22452 21.5825 1.37252 21.6675C1.52252 21.7545 1.69052 21.813 1.87652 21.843C2.11152 21.883 2.33452 21.9145 2.54552 21.9375C2.75552 21.9615 2.96252 21.9965 3.16652 22.0425C3.36852 22.0895 3.57152 22.1405 3.77552 22.1955C3.97852 22.2495 4.19352 22.3355 4.42052 22.4535C4.46652 22.4765 4.53652 22.5035 4.63052 22.5345L4.94702 22.6395C5.06402 22.6795 5.17352 22.711 5.27552 22.734C5.34851 22.7515 5.42272 22.7636 5.49752 22.77ZM9.78752 21.363C10.0065 21.363 10.241 21.3395 10.491 21.2925C11.0012 21.1978 11.4946 21.0279 11.955 20.7885C12.1695 20.6791 12.3734 20.55 12.564 20.403C12.5833 20.3819 12.5995 20.3582 12.612 20.3325C12.627 20.3024 12.6386 20.2707 12.6465 20.238V20.226C12.6925 20.054 12.7315 19.8665 12.7635 19.6635C12.7958 19.4572 12.8233 19.2501 12.846 19.0425C12.8687 18.8349 12.8962 18.6278 12.9285 18.4215C12.9585 18.2185 12.9855 18.0195 13.0095 17.8245C13.0415 17.6145 13.0805 17.4115 13.1265 17.2155C13.1735 17.0205 13.236 16.8365 13.314 16.6635C13.3902 16.4931 13.4976 16.3385 13.6305 16.2075C13.7838 16.0586 13.9576 15.9324 14.1465 15.8325V15.8085L14.1345 15.774C14.1379 15.6946 14.1622 15.6175 14.205 15.5505C14.2575 15.4644 14.3162 15.3822 14.3805 15.3045C14.4433 15.226 14.5189 15.1585 14.604 15.105C14.6823 15.0586 14.7646 15.0195 14.85 14.988C14.8027 14.7995 14.7517 14.612 14.697 14.4255C14.6428 14.2399 14.5957 14.0522 14.556 13.863C14.5178 13.6235 14.4713 13.3853 14.4165 13.149C14.3729 12.9657 14.3178 12.7854 14.2515 12.609C14.1847 12.437 14.0938 12.2754 13.9815 12.129C13.8655 11.972 13.7215 11.7845 13.5495 11.5665C13.483 11.4945 13.4237 11.4161 13.3725 11.3325C13.3331 11.2391 13.3098 11.1397 13.3035 11.0385C13.2853 10.9358 13.2618 10.8342 13.233 10.734C13.1268 10.3544 13.0058 9.97908 12.87 9.609C12.7975 9.41171 12.7113 9.21974 12.612 9.0345C12.5321 8.88645 12.4461 8.74182 12.354 8.601C12.276 8.484 12.194 8.4255 12.108 8.4255C11.92 8.4255 11.697 8.5 11.439 8.649C11.182 8.797 10.909 8.961 10.62 9.141C10.331 9.321 10.0495 9.489 9.77552 9.645C9.50252 9.801 9.25652 9.875 9.03752 9.867C8.8038 9.86685 8.57682 9.78872 8.39252 9.645C8.19357 9.49399 8.01241 9.32088 7.85252 9.129C7.68852 8.934 7.55202 8.766 7.44302 8.625C7.33402 8.484 7.25202 8.406 7.19702 8.391C7.13502 8.391 7.10002 8.4375 7.09202 8.5305C7.0843 8.63583 7.0803 8.74139 7.08002 8.847V9.0465C7.08002 9.0935 7.07202 9.125 7.05602 9.141C6.97002 9.321 6.87652 9.4965 6.77552 9.6675C6.67452 9.8395 6.57302 10.0155 6.47102 10.1955C6.26832 10.5411 6.15539 10.932 6.14252 11.3325C6.14252 11.4495 6.15052 11.5665 6.16652 11.6835C6.18152 11.8005 6.22052 11.914 6.28352 12.024L6.25952 12.069C6.19934 12.1526 6.13263 12.2314 6.06002 12.3045C5.98555 12.3793 5.91918 12.4618 5.86202 12.5505C5.57522 12.9744 5.36832 13.4472 5.25152 13.9455C5.13452 14.4455 5.07202 14.953 5.06402 15.468C5.06402 15.602 5.07202 15.735 5.08802 15.867C5.10402 16 5.11202 16.133 5.11202 16.266L5.10002 16.395L5.08802 16.524C5.25475 16.5428 5.41517 16.5987 5.55752 16.6875C5.73752 16.7895 5.93252 16.9185 6.14252 17.0745C6.35252 17.2305 6.55202 17.4105 6.74102 17.6145C6.92802 17.8165 7.10752 18.0155 7.27952 18.2115C7.45152 18.4065 7.57652 18.6015 7.65452 18.7965C7.73252 18.9915 7.78302 19.1515 7.80602 19.2765C7.81041 19.3672 7.79602 19.4579 7.76376 19.5428C7.73149 19.6277 7.68205 19.7051 7.61852 19.77C7.48295 19.8999 7.3242 20.0032 7.15052 20.0745C7.28352 20.3085 7.44752 20.5075 7.64252 20.6715C7.83752 20.8365 8.04852 20.9695 8.27552 21.0705C8.50252 21.1715 8.74852 21.2455 9.01352 21.2925C9.27852 21.3395 9.53652 21.363 9.78752 21.363ZM14.487 23.028C14.651 23.028 14.811 23.0045 14.967 22.9575C15.203 22.8887 15.4279 22.7861 15.6345 22.653C15.8375 22.52 16.025 22.3555 16.197 22.1595C16.6054 21.6903 17.1037 21.3077 17.6625 21.0345L18.0495 20.859C18.1827 20.8019 18.3115 20.7352 18.435 20.6595C18.5243 20.6024 18.6072 20.5361 18.6825 20.4615C18.72 20.4248 18.7497 20.3809 18.7698 20.3324C18.7899 20.284 18.8 20.232 18.7995 20.1795C18.7994 20.1192 18.7872 20.0595 18.7635 20.004C18.7353 19.9417 18.7001 19.8828 18.6585 19.8285C18.5515 19.6798 18.4499 19.5272 18.354 19.371C18.2673 19.229 18.1925 19.0799 18.1305 18.9255L17.943 18.4575C17.8772 18.2851 17.8221 18.1087 17.778 17.9295C17.761 17.8743 17.7335 17.8228 17.697 17.778C17.6216 17.6653 17.5186 17.5737 17.3979 17.512C17.2771 17.4503 17.1425 17.4205 17.007 17.4255C16.8671 17.4248 16.7295 17.461 16.608 17.5305L16.209 17.754C16.0702 17.8312 15.9297 17.9052 15.7875 17.976C15.6493 18.0453 15.4967 18.0813 15.342 18.081C15.2035 18.0884 15.0668 18.0476 14.955 17.9655C14.8459 17.8812 14.7576 17.7729 14.697 17.649C14.6294 17.5243 14.5708 17.395 14.5215 17.262L14.3805 16.875C14.3192 16.9751 14.2489 17.0695 14.1705 17.157C14.0911 17.247 14.0276 17.35 13.983 17.4615C13.881 17.6955 13.8185 17.957 13.7955 18.246C13.7565 18.699 13.7055 19.1405 13.6425 19.5705C13.5783 20.0095 13.4729 20.4414 13.3275 20.8605C13.2865 20.9946 13.2549 21.1315 13.233 21.27C13.21 21.4136 13.194 21.5583 13.185 21.7035C13.185 22.0865 13.3025 22.403 13.5375 22.653C13.7725 22.903 14.089 23.028 14.487 23.028Z" fill="#FDFDFD"/>
</svg>
